<svg width="30" height="29" viewBox="0 0 30 29" fill="none" xmlns="http://www.w3.org/2000/svg">
<path d="M17.591 14.5001C17.591 16.0331 16.349 17.2751 14.816 17.2751C13.283 17.2751 12.041 16.0331 12.041 14.5001C12.041 12.9671 13.283 11.7251 14.816 11.7251C16.349 11.7251 17.591 12.9671 17.591 14.5001Z" fill="url(#paint0_linear_206_732)"/>
<path d="M21.3062 9.58881C21.1732 9.22781 20.9602 8.90084 20.6842 8.63184C20.4152 8.35584 20.0883 8.14279 19.7263 8.00879C19.4333 7.89479 18.9922 7.75984 18.1802 7.72284C17.3022 7.68284 17.0393 7.67383 14.8163 7.67383C12.5923 7.67383 12.3292 7.68184 11.4512 7.72284C10.6392 7.75984 10.1992 7.89479 9.90524 8.00879C9.54424 8.14279 9.21624 8.35584 8.94824 8.63184C8.67124 8.90084 8.45926 9.22781 8.32526 9.58881C8.21126 9.88281 8.07524 10.3238 8.03824 11.1358C7.99824 12.0128 7.99023 12.2768 7.99023 14.4998C7.99023 16.7228 7.99824 16.9868 8.03824 17.8648C8.07524 18.6768 8.21126 19.1168 8.32526 19.4108C8.45926 19.7718 8.67124 20.0988 8.94824 20.3678C9.21624 20.6448 9.54324 20.8568 9.90524 20.9908C10.1992 21.1048 10.6392 21.2408 11.4512 21.2778C12.3292 21.3178 12.5923 21.3258 14.8163 21.3258C17.0393 21.3258 17.3022 21.3178 18.1802 21.2778C18.9922 21.2408 19.4333 21.1048 19.7263 20.9908C20.4523 20.7108 21.0262 20.1368 21.3062 19.4108C21.4202 19.1168 21.5562 18.6768 21.5932 17.8648C21.6332 16.9868 21.6422 16.7228 21.6422 14.4998C21.6422 12.2768 21.6332 12.0128 21.5932 11.1358C21.5562 10.3238 21.4212 9.88281 21.3062 9.58881ZM14.8163 18.7748C12.4543 18.7748 10.5403 16.8608 10.5403 14.4998C10.5403 12.1388 12.4543 10.2238 14.8163 10.2238C17.1773 10.2238 19.0912 12.1388 19.0912 14.4998C19.0912 16.8608 17.1773 18.7748 14.8163 18.7748ZM19.2603 11.0548C18.7093 11.0548 18.2612 10.6068 18.2612 10.0548C18.2612 9.50381 18.7093 9.05585 19.2603 9.05585C19.8123 9.05585 20.2603 9.50381 20.2603 10.0548C20.2593 10.6068 19.8123 11.0548 19.2603 11.0548Z" fill="url(#paint1_linear_206_732)"/>
<path d="M14.8164 0C6.80941 0 0.316406 6.493 0.316406 14.5C0.316406 22.507 6.80941 29 14.8164 29C22.8234 29 29.3164 22.507 29.3164 14.5C29.3164 6.493 22.8234 0 14.8164 0ZM23.0924 17.933C23.0524 18.819 22.9114 19.424 22.7054 19.954C22.2724 21.072 21.3884 21.956 20.2704 22.389C19.7404 22.595 19.1354 22.735 18.2494 22.776C17.3614 22.816 17.0774 22.826 14.8164 22.826C12.5554 22.826 12.2714 22.816 11.3834 22.776C10.4974 22.735 9.8924 22.595 9.3624 22.389C8.8064 22.18 8.30339 21.852 7.88739 21.429C7.46439 21.013 7.1364 20.509 6.9274 19.954C6.7214 19.424 6.58041 18.819 6.54041 17.933C6.49941 17.045 6.49039 16.761 6.49039 14.5C6.49039 12.239 6.49941 11.955 6.54041 11.067C6.58041 10.181 6.7214 9.57602 6.9274 9.04602C7.1364 8.49102 7.46439 7.98698 7.88739 7.57098C8.30339 7.14798 8.8064 6.82002 9.3624 6.61102C9.8924 6.40502 10.4974 6.265 11.3834 6.224C12.2714 6.184 12.5554 6.17401 14.8164 6.17401C17.0774 6.17401 17.3614 6.184 18.2494 6.224C19.1354 6.265 19.7404 6.40502 20.2704 6.61102C20.8254 6.82002 21.3294 7.14798 21.7454 7.57098C22.1684 7.98698 22.4964 8.49102 22.7054 9.04602C22.9114 9.57602 23.0524 10.181 23.0924 11.067C23.1334 11.955 23.1424 12.239 23.1424 14.5C23.1424 16.761 23.1334 17.045 23.0924 17.933Z" fill="url(#paint2_linear_206_732)"/>
<defs>
<linearGradient id="paint0_linear_206_732" x1="14.816" y1="11.7251" x2="14.816" y2="17.2751" gradientUnits="userSpaceOnUse">
<stop stop-color="white"/>
<stop offset="1" stop-color="white"/>
</linearGradient>
<linearGradient id="paint1_linear_206_732" x1="14.8162" y1="7.67383" x2="14.8162" y2="21.3258" gradientUnits="userSpaceOnUse">
<stop stop-color="white"/>
<stop offset="1" stop-color="white"/>
</linearGradient>
<linearGradient id="paint2_linear_206_732" x1="14.8164" y1="0" x2="14.8164" y2="29" gradientUnits="userSpaceOnUse">
<stop stop-color="white"/>
<stop offset="1" stop-color="white"/>
</linearGradient>
</defs>
</svg>
