<svg width="28" height="28" viewBox="0 0 28 28" fill="none" xmlns="http://www.w3.org/2000/svg">
<path d="M13.737 0C6.151 0 0 6.151 0 13.737C0 21.322 6.151 27.474 13.737 27.474C21.322 27.474 27.474 21.322 27.474 13.737C27.474 6.151 21.322 0 13.737 0ZM22.32 13.751C22.32 13.751 22.32 16.537 21.967 17.88C21.769 18.615 21.189 19.195 20.454 19.393C19.11 19.747 13.737 19.747 13.737 19.747C13.737 19.747 8.37699 19.747 7.01999 19.379C6.28499 19.181 5.70499 18.601 5.50699 17.866C5.15299 16.537 5.15302 13.737 5.15302 13.737C5.15302 13.737 5.15299 10.951 5.50699 9.60797C5.70499 8.87197 6.29899 8.27799 7.01999 8.08099C8.36299 7.72699 13.737 7.72699 13.737 7.72699C13.737 7.72699 19.11 7.72697 20.454 8.09497C21.189 8.29197 21.769 8.87197 21.967 9.60797C22.335 10.951 22.32 13.751 22.32 13.751Z" fill="url(#paint0_linear_206_737)"/>
<path d="M11 17.105L17.105 14.053L11 11V17.105Z" fill="url(#paint1_linear_206_737)"/>
<defs>
<linearGradient id="paint0_linear_206_737" x1="13.737" y1="0" x2="13.737" y2="27.474" gradientUnits="userSpaceOnUse">
<stop stop-color="white"/>
<stop offset="1" stop-color="white"/>
</linearGradient>
<linearGradient id="paint1_linear_206_737" x1="14.053" y1="11" x2="14.053" y2="17.105" gradientUnits="userSpaceOnUse">
<stop stop-color="white"/>
<stop offset="1" stop-color="white"/>
</linearGradient>
</defs>
</svg>
